# xmcd
#
# Track frame offsets: 
#        150
#        15164
#        39931
#        58701
#        73748
#        90529
#        117915
#        134898
#        144806
#        155868
#        168186
#        186119
#        200249
#        221201
#        233439
#        245361
#        258704
#        273732
#        286007
#        300989
#        316845
#        333832
#
# Disc length: 4597 seconds
#
# Revision: 0
# Processed by: cddbd v1.5.2PL0 Copyright (c) Steve Scherf et al.
# Submitted via: ExactAudioCopy v0.95b3
#
DISCID=3d11f316
DTITLE=Sir Douglas Quintet  - The Complete Mercury Recordings [CD1]
DYEAR=1900
DGENRE=
TTITLE0=Are Inlaws Really Outlaws
TTITLE1=Sell A Song
TTITLE2=Song Of Everything
TTITLE3=Can You Dig My Vibrations
TTITLE4=I'm Glad For Your Sake (But I'm Sorry For Mine)
TTITLE5=Whole Lotta Peace Of Mind
TTITLE6=You Never Get Too Big And You Sure Don't Get Too Heavy, That Y
TTITLE6=ou Don't Have To Stop And Pay Some Dues Sometime
TTITLE7=Suzie Q
TTITLE8=San Antonio Rose
TTITLE9=Mendocino
TTITLE10=I Don't Want
TTITLE11=I Wanna Be Your Mama Again
TTITLE12=At The Crossroads
TTITLE13=If You Really Want Me To I'll Go
TTITLE14=And It Didn't Even Bring Me Down
TTITLE15=Lawd, I'm Just A Country Boy In This Great Big Freaky City
TTITLE16=She's About A Mover
TTITLE17=Texas Me
TTITLE18=Oh, Baby, It Just Don't Matter
TTITLE19=Sunday Sunny Mill Valley Groove Day
TTITLE20=Dynamite Woman
TTITLE21=Too Many Dociled Minds
EXTD=
EXTT0=
EXTT1=
EXTT2=
EXTT3=
EXTT4=
EXTT5=
EXTT6=
EXTT7=
EXTT8=
EXTT9=
EXTT10=
EXTT11=
EXTT12=
EXTT13=
EXTT14=
EXTT15=
EXTT16=
EXTT17=
EXTT18=
EXTT19=
EXTT20=
EXTT21=
PLAYORDER=
